<svg id="offers" xmlns="http://www.w3.org/2000/svg" width="24" height="24" viewBox="0 0 24 24">
  <rect id="spacer" width="24" height="24" fill="none"/>
  <path id="coupons_icon" data-name="coupons icon" d="M14.441-156.028a.774.774,0,0,0,.554-.233l7.682-7.7a.786.786,0,0,0,0-1.111l-8.73-8.729a.783.783,0,0,0-.755-.206l-6.071,1.628a.791.791,0,0,0-.563.553l-1.624,6.072a.786.786,0,0,0,.2.759l8.734,8.729A.783.783,0,0,0,14.441-156.028ZM9.894-169.137a.851.851,0,0,1-.927.184.85.85,0,0,1-.525-.786.85.85,0,0,1,.525-.786.851.851,0,0,1,.927.184A.85.85,0,0,1,9.894-169.137Zm.778,6.04a.394.394,0,0,1-.354-.214.393.393,0,0,1,.034-.412l1.286-1.756-.691-2.035a.389.389,0,0,1,.1-.4.384.384,0,0,1,.4-.091l2.031.7,1.72-1.28a.385.385,0,0,1,.412-.037.393.393,0,0,1,.215.357l-.009,2.149,1.752,1.239a.375.375,0,0,1,.16.379.4.4,0,0,1-.27.316l-2.05.635-.654,2.048a.394.394,0,0,1-.316.27h-.059a.385.385,0,0,1-.32-.165l-1.24-1.751Z" transform="translate(-1.907 177.027)" fill="#333" fill-rule="evenodd"/>
</svg>
