<svg id="contact" xmlns="http://www.w3.org/2000/svg" width="24" height="24" viewBox="0 0 24 24">
  <rect id="spacer" width="24" height="24" fill="none"/>
  <path id="contact_icon" data-name="contact icon" d="M15.479-58.094c-5.475,0-9.014,2.8-9.014,7.118a16.949,16.949,0,0,0,.321,3.18A7.714,7.714,0,0,1,6.5-43.261a.877.877,0,0,0,.125.8.9.9,0,0,0,.732.367.9.9,0,0,0,.263-.036c.726-.218,1.352-.431,1.951-.633a15.519,15.519,0,0,1,5.785-1.1h.089c5.469,0,9.009-2.791,9.009-7.113S20.949-58.094,15.479-58.094Zm4.912,7.232a5.952,5.952,0,0,1-4.886,2.636h-.063a5.977,5.977,0,0,1-4.87-2.521.441.441,0,0,1-.047-.41l.195-.519a.451.451,0,0,1,.339-.279.456.456,0,0,1,.418.139,5.821,5.821,0,0,0,1.862,1.38,4.963,4.963,0,0,0,2.1.467h.047a5.067,5.067,0,0,0,2.161-.519,5.91,5.91,0,0,0,1.82-1.416.461.461,0,0,1,.421-.15.451.451,0,0,1,.342.275l.2.493a.451.451,0,0,1-.042.425Z" transform="translate(-3.456 62.094)" fill="#333" fill-rule="evenodd"/>
</svg>
