<svg id="location_pin" data-name="location pin" xmlns="http://www.w3.org/2000/svg" width="24" height="24" viewBox="0 0 24 24">
  <rect id="spacer" width="24" height="24" fill="none"/>
  <path id="country_icon" data-name="country icon" d="M12-23a7.861,7.861,0,0,0-8,7.714C4-10.443,7.2-9.62,12-5h0c6.12-5.293,8-6.347,8-10.286A7.861,7.861,0,0,0,12-23Zm3.556,7.286-1.511,1.393.356,1.98a.364.364,0,0,1-.088.3.393.393,0,0,1-.29.131.458.458,0,0,1-.178-.043L12-12.886l-1.844.934a.4.4,0,0,1-.4-.03.367.367,0,0,1-.151-.36l.356-1.98L8.444-15.714a.355.355,0,0,1-.1-.377.383.383,0,0,1,.307-.253l2.062-.287.924-1.8a.384.384,0,0,1,.342-.206.388.388,0,0,1,.342.206l.924,1.8,2.062.287a.383.383,0,0,1,.307.253A.354.354,0,0,1,15.556-15.714Z" transform="translate(0 26)" fill="#333" stroke="rgba(0,0,0,0)" stroke-width="1" fill-rule="evenodd"/>
</svg>
