<svg width="31" height="25" viewBox="0 0 31 25" fill="none" xmlns="http://www.w3.org/2000/svg">
<path d="M7.75085 12.9126H13.8512C15.9073 12.9137 17.8787 13.7313 19.3321 15.1855C20.7856 16.6398 21.6021 18.6117 21.6021 20.6677C21.6021 21.691 21.1956 22.6724 20.472 23.3959C19.7484 24.1195 18.7671 24.526 17.7438 24.526H3.85827C2.835 24.526 1.85363 24.1195 1.13006 23.3959C0.406496 22.6724 0 21.691 0 20.6677C-3.14142e-07 18.6117 0.816467 16.6398 2.26991 15.1855C3.72335 13.7313 5.6948 12.9137 7.75085 12.9126Z" fill="#D2010D"/>
<path d="M10.7986 10.6403C13.7369 10.6403 16.1188 8.25836 16.1188 5.32013C16.1188 2.3819 13.7369 0 10.7986 0C7.86042 0 5.47852 2.3819 5.47852 5.32013C5.47852 8.25836 7.86042 10.6403 10.7986 10.6403Z" fill="#D2010D"/>
<path d="M22.6142 11.129C24.8918 11.129 26.7382 9.28258 26.7382 7.00493C26.7382 4.72727 24.8918 2.88086 22.6142 2.88086C20.3365 2.88086 18.4901 4.72727 18.4901 7.00493C18.4901 9.28258 20.3365 11.129 22.6142 11.129Z" fill="#D2010D"/>
<path d="M24.9818 12.8911H20.2661C19.5902 12.8927 18.9194 13.0071 18.2812 13.2298C19.5727 13.9953 20.643 15.0835 21.3871 16.3874C22.1311 17.6914 22.5234 19.1664 22.5254 20.6677C22.5234 21.0822 22.4657 21.4946 22.3539 21.8938H27.9998C28.7957 21.8938 29.559 21.5776 30.1218 21.0148C30.6845 20.4521 31.0007 19.6888 31.0007 18.8929C31.0007 18.1033 30.8449 17.3214 30.5422 16.5922C30.2395 15.8629 29.7959 15.2005 29.2368 14.6429C28.6776 14.0854 28.014 13.6437 27.2838 13.3431C26.5537 13.0425 25.7714 12.8889 24.9818 12.8911Z" fill="#D2010D"/>
</svg>
